<?xml version="1.0" standalone="no"?>
<!DOCTYPE svg PUBLIC "-//W3C//DTD SVG 20010904//EN"
 "http://www.w3.org/TR/2001/REC-SVG-20010904/DTD/svg10.dtd">
<svg version="1.0" xmlns="http://www.w3.org/2000/svg"
 width="16.000000pt" height="16.000000pt" viewBox="0 0 16.000000 16.000000"
 preserveAspectRatio="xMidYMid meet">
<metadata>
Created by potrace 1.11, written by Peter Selinger 2001-2013
</metadata>
<g transform="translate(0.000000,16.000000) scale(0.001481,-0.001481)"
fill="#000000" stroke="none">
<path d="M8510 8061 c0 -5 7 -12 16 -15 14 -5 15 -4 4 9 -14 17 -20 19 -20 6z"/>
<path d="M6747 7854 c-12 -13 -7 -34 8 -34 8 0 15 -7 15 -15 0 -8 7 -15 15
-15 19 0 20 16 2 27 -8 4 -18 16 -23 26 -6 10 -13 14 -17 11z"/>
<path d="M6806 7774 c7 -3 10 -15 7 -27 -4 -18 -3 -19 6 -7 16 23 13 40 -6 39
-10 0 -13 -3 -7 -5z"/>
<path d="M6827 7725 c-7 -17 91 -389 103 -393 5 -2 7 -9 4 -15 -2 -7 0 -25 5
-42 5 -16 10 -23 10 -15 1 13 2 13 12 0 8 -11 9 -9 3 10 -4 14 -9 27 -13 30
-3 3 -6 13 -7 23 -2 50 -5 58 -16 51 -8 -5 -9 -2 -5 10 9 23 -2 68 -15 60 -6
-4 -7 2 -3 16 5 17 4 20 -5 15 -10 -6 -11 -2 -7 16 7 29 -15 113 -28 102 -4
-4 -5 -3 -2 3 10 17 -3 75 -15 68 -5 -3 -6 6 -2 22 5 20 4 25 -6 19 -9 -5 -10
-2 -5 14 7 23 0 29 -8 6z"/>
<path d="M3090 7568 c0 -27 116 -736 136 -830 3 -17 10 -25 18 -22 11 4 10 25
-5 107 -90 512 -122 708 -122 740 0 25 -4 37 -13 37 -9 0 -14 -12 -14 -32z"/>
<path d="M5260 7273 c1 -65 5 -136 9 -158 5 -22 20 -92 34 -154 14 -63 23
-119 20 -124 -3 -5 -1 -12 4 -16 11 -7 43 -134 36 -141 -3 -3 -8 1 -10 8 -3 6
-9 9 -14 6 -6 -3 -1 -14 11 -24 11 -10 18 -24 14 -33 -3 -8 0 -18 6 -22 8 -5
6 -13 -7 -28 -18 -20 -17 -20 3 -15 13 3 21 0 21 -8 0 -8 -4 -14 -9 -14 -4 0
-8 -7 -8 -15 0 -8 8 -15 17 -15 15 0 14 -2 -3 -15 -18 -14 -18 -14 4 -8 16 4
22 1 22 -10 0 -8 -5 -17 -11 -19 -8 -3 -6 -10 5 -20 12 -12 13 -19 4 -24 -8
-5 -6 -10 8 -15 17 -7 16 -8 -6 -9 l-25 0 24 -19 c13 -10 21 -23 17 -29 -3 -6
0 -13 6 -15 7 -3 -5 -6 -27 -7 -22 -1 -33 -4 -25 -7 40 -13 60 -27 49 -34 -16
-10 -22 -67 -8 -87 8 -14 9 -12 5 10 -3 14 -3 34 0 42 6 15 8 15 19 0 8 -12
10 -29 4 -53 -4 -19 -6 -37 -3 -40 2 -2 4 0 4 6 0 6 7 13 15 17 10 4 15 -1 15
-14 0 -12 -7 -20 -17 -21 -11 0 -13 -3 -5 -6 24 -9 12 -23 -15 -17 -27 6 -27
5 -8 -9 11 -8 30 -17 43 -21 12 -4 20 -12 17 -17 -4 -5 -1 -9 4 -9 6 0 11 -5
11 -11 0 -6 -6 -9 -12 -6 -8 3 -13 -4 -13 -18 0 -13 2 -23 5 -23 19 1 23 -4
10 -13 -11 -8 -12 -12 -2 -16 15 -6 16 -35 0 -51 -7 -7 -8 -12 -2 -12 6 0 15
5 22 12 15 15 28 2 14 -15 -8 -9 -7 -25 4 -57 9 -25 13 -55 11 -68 -4 -18 -1
-21 14 -17 14 5 19 1 19 -14 0 -12 -5 -21 -11 -21 -5 0 -7 -5 -4 -10 4 -6 11
-8 16 -5 5 4 9 1 9 -4 0 -16 -11 -14 -32 6 -15 13 -18 14 -18 2 0 -8 5 -20 12
-27 7 -7 9 -12 4 -12 -4 0 6 -14 23 -31 33 -33 42 -51 14 -28 -15 13 -15 12
-4 -8 8 -16 9 -29 2 -41 -5 -10 -6 -24 -2 -31 7 -11 10 -11 14 0 4 10 6 8 6
-4 1 -10 6 -15 11 -12 6 3 10 -1 10 -10 0 -9 -4 -13 -10 -10 -6 3 -7 -1 -4 -9
3 -9 10 -13 15 -10 18 11 8 -8 -13 -26 -13 -10 -20 -21 -16 -25 4 -4 14 0 23
9 20 20 20 20 22 -3 1 -12 -7 -21 -20 -25 -21 -6 -20 -7 8 -19 26 -12 27 -14
10 -20 -10 -5 -21 -3 -25 4 -6 8 -9 8 -14 0 -4 -6 -3 -11 2 -11 5 0 12 -9 15
-20 6 -25 24 -26 30 -2 4 16 5 16 6 0 0 -10 6 -18 11 -18 17 0 11 -28 -9 -42
-16 -11 -16 -15 -5 -26 8 -7 14 -8 14 -2 0 5 5 10 12 10 7 0 6 -6 -4 -17 -8
-10 -19 -25 -23 -33 -7 -12 -6 -13 6 -4 11 9 17 9 26 -1 9 -10 8 -14 -6 -18
-14 -3 -17 -11 -14 -31 5 -22 3 -25 -13 -19 -16 6 -17 5 -4 -9 8 -8 21 -13 27
-11 8 3 13 -2 13 -13 0 -9 3 -14 7 -11 8 8 33 -11 33 -25 0 -6 -6 -5 -14 2
-13 10 -15 6 -13 -24 1 -20 5 -36 10 -36 4 0 7 -4 7 -10 0 -5 -7 -10 -15 -10
-8 0 -15 -5 -15 -10 0 -7 6 -7 20 0 12 6 20 7 20 1 0 -5 -4 -11 -10 -13 -5 -1
-11 -13 -13 -25 -1 -11 -9 -28 -15 -36 -8 -10 -9 -18 -3 -21 5 -4 16 3 25 15
13 19 17 20 28 8 15 -16 21 -39 12 -39 -4 0 -13 8 -21 18 -14 16 -14 16 -9 0
3 -10 0 -18 -6 -18 -13 0 -1 -14 13 -16 5 -1 13 -2 17 -3 5 0 9 -7 9 -14 0
-17 -39 -20 -49 -4 -6 9 -8 9 -8 0 0 -7 9 -17 20 -23 11 -6 20 -17 20 -25 0
-8 7 -15 15 -15 8 0 15 -5 15 -11 0 -6 -7 -8 -16 -5 -15 6 -14 3 1 -21 10 -16
26 -33 34 -40 12 -9 14 -16 5 -30 -14 -24 -7 -43 13 -36 11 4 14 2 9 -5 -4 -7
-2 -12 6 -12 9 0 9 -3 -2 -10 -13 -8 -12 -11 4 -23 19 -14 19 -15 -7 -32 -15
-9 -27 -22 -27 -28 0 -7 4 -7 12 1 17 17 48 15 50 -3 0 -8 1 -21 2 -27 1 -7 8
-18 16 -25 13 -10 11 -11 -8 -6 -17 4 -21 2 -16 -10 3 -9 15 -19 26 -23 15 -4
19 -12 15 -30 -2 -13 -1 -21 3 -19 4 2 18 -46 32 -108 15 -62 81 -347 149
-635 l124 -522 32 32 33 33 -76 325 c-41 179 -158 681 -259 1115 -101 435
-256 1101 -345 1480 -219 944 -300 1275 -311 1275 -5 0 -9 -53 -9 -117z m340
-1588 c0 -8 -4 -15 -10 -15 -5 0 -10 7 -10 15 0 8 5 15 10 15 6 0 10 -7 10
-15z m108 -511 c1 -1 -5 -7 -15 -15 -12 -10 -15 -10 -9 -1 4 7 2 20 -6 30 -12
16 -11 16 7 2 11 -8 21 -15 23 -16z m42 -220 c0 -2 -7 -4 -15 -4 -8 0 -15 4
-15 10 0 5 7 7 15 4 8 -4 15 -8 15 -10z m45 -154 c3 -5 1 -10 -4 -10 -6 0 -11
5 -11 10 0 6 2 10 4 10 3 0 8 -4 11 -10z m35 -120 c0 -5 -4 -10 -10 -10 -5 0
-10 5 -10 10 0 6 5 10 10 10 6 0 10 -4 10 -10z"/>
<path d="M1270 7235 c0 -8 7 -15 15 -15 9 0 12 6 9 15 -4 8 -10 15 -15 15 -5
0 -9 -7 -9 -15z"/>
<path d="M1254 7202 c-8 -5 3 -128 39 -429 28 -232 54 -420 57 -418 3 2 4 -15
1 -38 -3 -36 -2 -39 11 -26 12 12 13 29 6 94 -5 44 -12 87 -15 95 -4 8 -5 21
-4 28 2 11 -77 675 -82 694 -1 4 -7 4 -13 0z"/>
<path d="M7950 7134 c-14 -3 -218 -43 -455 -89 -236 -46 -505 -98 -597 -116
-93 -18 -168 -35 -168 -38 0 -3 4 -12 9 -19 6 -10 27 -8 102 12 150 39 166 40
174 16 9 -28 25 -25 25 5 0 14 1 25 3 25 9 0 141 25 322 60 474 92 579 111
644 116 75 6 219 -10 235 -26 6 -6 18 -10 28 -10 28 0 10 28 -23 35 -16 4 -29
10 -29 14 0 4 -6 9 -12 10 -25 5 -233 9 -258 5z"/>
<path d="M8348 7063 c-26 -6 -22 -18 12 -45 43 -33 108 -123 141 -193 58 -123
71 -287 30 -379 -24 -55 -9 -52 19 5 39 75 43 232 9 339 -19 60 -77 163 -120
213 -45 52 -65 65 -91 60z"/>
<path d="M7955 7013 c-11 -2 -216 -42 -455 -89 -622 -121 -644 -125 -658 -130
-10 -3 -10 -8 -1 -25 6 -12 14 -17 18 -12 5 9 115 33 148 33 5 0 16 -18 23
-39 17 -53 39 -45 33 13 l-5 43 168 32 c93 18 205 39 249 47 44 8 109 21 145
29 36 8 97 19 135 26 39 6 84 16 100 21 17 5 84 12 151 15 140 7 195 -6 270
-63 24 -19 44 -31 44 -27 0 12 68 -123 72 -142 1 -11 8 -25 14 -32 11 -11 25
-88 29 -163 1 -19 -4 -55 -11 -80 -16 -53 -11 -63 11 -21 47 91 37 231 -25
357 -44 91 -112 169 -139 161 -10 -2 -23 3 -28 12 -6 10 -34 22 -63 29 -49 11
-183 15 -225 5z"/>
<path d="M5581 6974 c0 -11 3 -14 6 -6 3 7 2 16 -1 19 -3 4 -6 -2 -5 -13z"/>
<path d="M5591 6934 c0 -11 3 -14 6 -6 3 7 2 16 -1 19 -3 4 -6 -2 -5 -13z"/>
<path d="M7955 6893 c-11 -2 -213 -42 -450 -89 -422 -83 -455 -92 -455 -126 0
-4 -5 -8 -11 -8 -8 0 -8 4 0 14 17 20 -1 28 -46 21 -21 -4 -43 -8 -49 -10 -7
-2 2 -51 27 -142 105 -383 116 -418 130 -417 8 1 33 4 55 8 40 7 41 6 47 -23
4 -19 13 -31 22 -31 13 0 15 7 10 34 l-7 34 69 15 c37 9 109 24 160 33 51 10
89 22 86 27 -3 5 3 6 15 3 24 -8 94 3 88 13 -2 3 17 7 43 8 25 1 140 23 256
48 310 67 384 107 401 220 7 53 -9 144 -39 209 -31 68 -85 129 -108 123 -11
-3 -19 2 -22 13 -2 10 -18 20 -37 23 -36 8 -153 7 -185 0z"/>
<path d="M3337 6728 c-54 -8 -67 -14 -65 -27 4 -18 18 -18 118 -1 77 14 213 7
255 -12 51 -22 85 -50 111 -87 13 -20 24 -30 24 -24 0 23 -67 99 -115 128 -45
28 -55 30 -154 32 -58 0 -137 -4 -174 -9z"/>
<path d="M2930 6651 c-135 -26 -429 -83 -655 -126 -225 -43 -413 -81 -417 -84
-7 -7 85 -708 95 -717 3 -3 19 -3 36 1 29 6 29 7 11 25 -24 24 -35 67 -55 210
-8 63 -19 147 -25 185 -20 147 -22 177 -9 169 9 -5 10 0 5 19 -3 14 -1 29 4
32 6 4 7 11 4 17 -4 7 -2 8 4 4 7 -4 12 -1 12 8 0 10 6 13 16 9 10 -3 22 0 28
8 13 17 128 43 636 143 575 113 601 118 615 112 8 -3 17 -21 21 -40 6 -36 17
-45 29 -26 3 5 3 25 -1 45 -4 25 -12 35 -25 35 -10 0 -21 5 -24 10 -9 15 -41
11 -305 -39z"/>
<path d="M3367 6607 c-32 -7 -61 -17 -65 -23 -4 -5 -32 -10 -62 -11 -30 0
-118 -12 -195 -27 -77 -15 -268 -52 -425 -82 -626 -121 -625 -121 -628 -136
-3 -17 65 -518 71 -525 8 -7 77 9 77 18 0 5 -6 6 -12 4 -18 -6 -58 87 -47 108
6 10 5 20 -4 29 -6 7 -13 36 -15 63 -3 65 -10 134 -17 163 -15 62 60 142 133
142 21 0 42 4 47 9 6 5 116 30 245 55 129 26 253 51 275 56 22 5 65 14 95 19
49 9 194 37 320 61 113 22 118 22 125 0 9 -28 25 -25 25 5 0 14 3 25 8 25 4 0
50 7 102 14 126 18 220 3 251 -41 8 -11 20 -23 27 -27 29 -18 -19 54 -54 81
-33 24 -45 27 -128 30 -50 1 -117 -3 -149 -10z"/>
<path d="M5040 6508 c0 -121 -56 -326 -133 -491 -35 -73 -77 -134 -155 -226
l-43 -51 42 -17 c52 -20 164 -79 199 -104 19 -13 35 -16 60 -10 23 4 30 10 22
15 -9 6 -9 10 2 22 8 8 21 14 28 14 9 0 9 3 2 8 -6 4 -14 14 -17 22 -4 10 -6
8 -6 -7 -1 -12 -5 -25 -11 -28 -5 -3 -9 9 -8 30 1 20 6 39 11 42 6 4 7 1 2 -7
-5 -9 -4 -11 3 -6 7 4 12 14 12 22 0 8 5 14 11 14 6 0 7 5 2 13 -11 18 -12 37
-2 37 5 0 9 5 9 10 0 6 -3 9 -7 9 -21 -3 -33 3 -33 17 0 8 4 13 9 9 5 -3 12
-1 16 4 3 6 12 8 20 4 8 -3 15 0 15 6 0 6 -5 11 -11 11 -7 0 -9 10 -5 27 5 17
3 29 -6 35 -10 8 -9 9 3 5 11 -4 18 6 26 34 7 26 7 39 0 39 -5 0 0 9 13 20 21
18 22 20 4 21 -10 1 -23 1 -27 0 -5 -1 -6 3 -2 9 3 5 17 7 31 4 15 -4 24 -2
24 6 0 6 -5 8 -11 4 -12 -7 -29 13 -29 36 0 12 2 12 9 2 6 -11 11 -10 25 3 18
19 21 35 5 35 -5 0 -7 -4 -4 -10 3 -5 2 -10 -4 -10 -17 0 -22 18 -6 24 8 3 15
13 15 21 0 9 -4 14 -9 10 -5 -3 -12 -1 -15 4 -4 5 -2 12 3 16 6 3 8 12 5 20
-4 8 -10 12 -15 9 -5 -3 -9 0 -9 5 0 6 4 11 8 11 4 0 9 12 10 28 1 15 7 29 12
30 17 6 11 22 -7 22 -17 1 -17 1 0 14 17 13 16 14 -2 19 -11 3 -22 0 -25 -7
-3 -6 -3 1 1 17 3 15 0 34 -7 42 -9 10 -9 15 -1 15 18 0 12 27 -7 32 -10 3
-19 13 -19 22 0 20 5 20 31 -1 19 -16 19 -16 7 -1 -7 9 -10 22 -7 27 4 6 -2 8
-14 6 -18 -4 -26 14 -21 48 0 4 -3 7 -9 7 -6 0 -10 -28 -10 -62z m7 -732 c0
-8 -6 -12 -14 -9 -7 3 -13 9 -13 14 0 5 6 9 13 9 8 0 14 -6 14 -14z"/>
<path d="M3390 6489 c-43 -9 -300 -59 -405 -79 -27 -5 -212 -41 -410 -79 -198
-39 -379 -73 -403 -77 -23 -4 -45 -10 -47 -14 -3 -4 6 -88 20 -186 14 -99 25
-180 25 -180 0 -2 51 8 629 125 300 61 548 108 553 105 4 -3 8 -14 8 -25 0
-14 5 -19 18 -17 12 2 16 11 14 28 -2 23 4 27 71 47 77 24 145 66 173 108 38
59 25 175 -26 227 -26 26 -34 28 -102 27 -40 -1 -93 -5 -118 -10z"/>
<path d="M4831 6454 c0 -11 3 -14 6 -6 3 7 2 16 -1 19 -3 4 -6 -2 -5 -13z"/>
<path d="M4821 6414 c0 -11 3 -14 6 -6 3 7 2 16 -1 19 -3 4 -6 -2 -5 -13z"/>
<path d="M4921 6384 c0 -11 3 -14 6 -6 3 7 2 16 -1 19 -3 4 -6 -2 -5 -13z"/>
<path d="M4791 6319 c-57 -178 -153 -331 -271 -430 -28 -24 -56 -52 -62 -62
-34 -64 169 127 220 208 55 85 146 310 140 344 -2 8 -14 -19 -27 -60z"/>
<path d="M5168 6383 c7 -3 16 -2 19 1 4 3 -2 6 -13 5 -11 0 -14 -3 -6 -6z"/>
<path d="M5395 6361 c-3 -5 -2 -12 3 -15 5 -3 9 1 9 9 0 17 -3 19 -12 6z"/>
<path d="M4910 6345 c0 -22 -52 -169 -88 -247 -17 -37 -51 -95 -75 -130 -47
-66 -171 -191 -222 -224 l-29 -19 29 -6 c46 -10 67 -10 61 0 -4 5 -1 11 4 13
6 2 12 11 14 21 1 9 18 34 38 55 81 85 139 167 177 246 56 118 116 306 97 306
-3 0 -6 -7 -6 -15z"/>
<path d="M1365 6247 c-9 -33 2 -100 16 -92 10 7 10 59 -1 95 l-7 25 -8 -28z"/>
<path d="M5400 6160 c-12 -7 -10 -9 8 -7 12 0 22 5 22 9 0 11 -12 10 -30 -2z"/>
<path d="M1379 6063 c4 -44 5 -46 12 -18 6 28 7 28 9 5 1 -14 4 -19 7 -12 3 7
2 20 -3 30 -4 9 -6 23 -5 30 1 6 -4 12 -11 12 -10 0 -12 -13 -9 -47z"/>
<path d="M5416 6101 c-3 -5 1 -14 8 -20 10 -9 16 -9 21 -1 4 6 1 9 -7 8 -7 -2
-12 3 -10 10 2 14 -4 16 -12 3z"/>
<path d="M1395 5988 c-9 -22 -2 -63 10 -63 14 0 18 41 6 62 -9 17 -10 17 -16
1z m12 -30 c-3 -8 -6 -5 -6 6 -1 11 2 17 5 13 3 -3 4 -12 1 -19z"/>
<path d="M5106 5974 c-8 -20 0 -32 14 -18 5 5 5 15 1 22 -6 11 -10 10 -15 -4z"/>
<path d="M5126 5915 c4 -8 11 -15 16 -15 6 0 5 6 -2 15 -7 8 -14 15 -16 15 -2
0 -1 -7 2 -15z"/>
<path d="M7011 5853 c10 -37 19 -68 19 -68 0 0 11 -2 25 -3 45 -3 77 -27 230
-168 106 -99 144 -140 132 -142 -13 -3 -16 -9 -12 -23 4 -10 3 -19 -2 -18 -4
0 -80 69 -168 154 -87 85 -161 152 -163 150 -8 -8 62 -201 78 -215 10 -8 31
-60 48 -115 114 -378 278 -883 267 -822 -4 17 -1 27 7 27 9 0 9 3 0 12 -7 7
-8 17 -1 30 10 19 39 25 39 7 0 -5 -5 -7 -12 -3 -7 5 -8 3 -4 -5 5 -7 15 -10
23 -7 10 4 13 2 10 -7 -4 -10 2 -13 16 -12 12 1 22 4 22 5 0 2 19 4 43 4 23 1
42 -1 42 -5 0 -4 15 -16 33 -28 22 -14 26 -21 15 -21 -10 0 -18 -4 -18 -10 0
-5 -7 -7 -16 -3 -8 3 -13 12 -9 21 7 19 -12 42 -30 36 -10 -4 -10 -11 -1 -30
6 -13 15 -24 19 -24 5 0 5 -5 1 -12 -4 -7 -3 -8 4 -4 6 4 21 2 32 -4 16 -9 18
-8 14 5 -7 17 21 21 31 5 4 -6 12 -10 18 -9 22 3 37 -1 36 -8 -4 -23 3 -32 19
-27 14 5 14 3 -3 -11 -19 -16 -19 -16 15 -13 25 2 34 -1 32 -10 -1 -8 2 -11 6
-8 14 8 45 -31 36 -45 -5 -8 -3 -10 5 -4 13 8 25 -4 606 -575 160 -157 302
-296 317 -308 l26 -24 229 52 c1082 244 1331 301 1348 309 44 21 -24 11 -201
-30 -98 -22 -217 -49 -264 -59 -47 -10 -220 -50 -385 -88 -165 -38 -343 -79
-395 -91 -94 -20 -153 -24 -143 -8 3 5 -5 11 -16 14 -15 4 -21 12 -19 27 2 16
-2 20 -16 18 -14 -3 -17 1 -12 13 5 14 2 16 -13 12 -13 -3 -18 -1 -14 9 5 13
-34 13 -77 -1 -9 -3 -28 -2 -40 3 -22 8 -20 10 27 32 34 15 50 27 46 36 -3 8
-9 12 -13 9 -5 -3 -12 0 -16 6 -4 8 -3 9 4 5 7 -4 12 -2 12 4 0 6 5 8 11 4 7
-4 2 7 -11 24 -12 16 -19 35 -16 41 4 6 5 11 1 11 -3 0 -10 -10 -15 -22 l-9
-23 0 23 c-1 13 -7 22 -16 22 -8 0 -15 8 -15 18 0 10 -6 24 -12 31 -11 11 -10
12 2 6 8 -4 -3 11 -24 33 -22 23 -44 38 -49 35 -6 -3 -7 -1 -4 4 4 6 1 16 -7
22 -8 7 -16 8 -18 4 -3 -4 -4 -3 -2 3 3 16 -70 86 -81 77 -4 -5 -6 -3 -2 3 6
11 -125 143 -145 145 -7 1 -17 1 -22 0 -5 -1 -6 6 -2 15 5 12 -7 29 -41 60
-26 24 -52 40 -57 37 -6 -4 -8 -2 -3 2 4 5 -5 21 -19 36 -22 23 -31 26 -48 18
-19 -9 -19 -9 -4 4 16 13 8 24 -102 131 -66 64 -125 114 -130 111 -6 -3 -10
-1 -10 4 0 14 -27 14 -32 0 -6 -18 -34 0 -64 41 -27 37 -32 39 -66 34 -23 -3
-38 -1 -38 6 0 5 -9 10 -19 10 -10 0 -22 7 -25 16 -4 9 -13 14 -21 10 -8 -3
-14 -2 -14 2 4 22 -2 42 -11 37 -5 -3 -10 1 -10 9 0 24 -2 30 -17 45 -11 10
-11 16 -2 27 9 11 9 14 -1 14 -7 0 -10 6 -7 14 3 8 1 17 -6 19 -9 3 -9 7 0 19
10 11 10 17 1 26 -7 7 -8 12 -3 12 5 0 -43 53 -107 118 -97 98 -118 123 -124
156 l-7 40 30 -25 c27 -21 163 -149 723 -679 747 -707 993 -937 953 -890 -7 8
-13 21 -13 30 0 15 -39 60 -52 60 -3 0 -32 26 -64 58 -215 211 -895 850 -947
890 -20 15 -64 56 -99 90 -35 35 -167 166 -295 290 -202 199 -233 232 -243
271 -6 23 -10 45 -8 47 3 2 72 -58 155 -134 212 -194 201 -185 168 -134 -26
39 -44 57 -30 30 4 -7 0 -4 -9 6 -8 10 -17 22 -18 25 -8 16 -287 271 -297 271
-6 0 -11 4 -11 9 0 9 -316 307 -381 359 l-28 22 20 -67z m153 -284 c-6 -11
-24 -2 -24 11 0 5 7 7 15 4 8 -4 12 -10 9 -15z m46 -41 c0 -4 5 -8 11 -8 5 0
7 6 3 13 -4 6 11 -8 34 -33 23 -24 42 -48 42 -52 0 -4 6 -8 14 -8 32 0 106
-96 106 -139 0 -3 -45 39 -99 93 -55 55 -97 104 -94 109 3 6 2 7 -4 4 -14 -9
-57 39 -48 54 6 9 12 7 22 -6 7 -11 13 -22 13 -27z m719 -822 c8 -9 8 -16 2
-20 -6 -4 -15 3 -21 14 -12 23 2 27 19 6z m-444 -16 c3 -5 -1 -10 -10 -10 -9
0 -13 5 -10 10 3 6 8 10 10 10 2 0 7 -4 10 -10z m105 -30 c0 -5 -10 -10 -22
-10 -19 0 -20 2 -8 10 19 13 30 13 30 0z m495 -48 c-3 -3 -11 0 -18 7 -9 10
-8 11 6 5 10 -3 15 -9 12 -12z"/>
<path d="M1407 5903 c-4 -3 -7 -18 -6 -32 0 -16 3 -20 6 -11 3 8 11 18 17 22
8 5 8 10 0 18 -6 6 -13 7 -17 3z"/>
<path d="M5090 5890 c0 -5 5 -10 11 -10 5 0 7 5 4 10 -3 6 -8 10 -11 10 -2 0
-4 -4 -4 -10z"/>
<path d="M5516 5855 c4 -8 8 -15 10 -15 2 0 4 7 4 15 0 8 -4 15 -10 15 -5 0
-7 -7 -4 -15z"/>
<path d="M5851 5844 c0 -11 3 -14 6 -6 3 7 2 16 -1 19 -3 4 -6 -2 -5 -13z"/>
<path d="M1416 5823 c-3 -3 -6 -18 -5 -32 0 -24 1 -24 9 -6 6 14 8 2 5 -35 -3
-40 -2 -48 4 -30 19 52 10 125 -13 103z"/>
<path d="M5080 5786 c0 -8 5 -18 10 -21 6 -4 7 -11 4 -17 -4 -7 -2 -8 5 -4 9
6 9 11 0 23 -10 12 -10 16 2 24 11 7 11 9 -3 9 -10 0 -18 -6 -18 -14z"/>
<path d="M4310 5737 c-71 -30 -73 -32 -45 -38 17 -4 52 -7 79 -8 46 -1 48 0
30 13 -17 13 -17 15 -2 21 9 4 16 15 15 26 -1 10 -1 18 -2 18 0 -1 -34 -15
-75 -32z"/>
<path d="M1441 5694 c0 -11 3 -14 6 -6 3 7 2 16 -1 19 -3 4 -6 -2 -5 -13z"/>
<path d="M9219 5675 c-46 -25 -181 -67 -289 -89 l-105 -22 44 -32 c39 -28 70
-35 56 -12 -11 18 34 48 106 70 76 23 219 84 219 94 0 8 -1 8 -31 -9z"/>
<path d="M1960 5635 c0 -4 43 -325 95 -714 52 -388 101 -757 109 -820 9 -62
17 -116 19 -118 7 -7 97 19 97 28 0 5 -7 6 -15 3 -9 -4 -18 1 -22 12 -4 11
-13 24 -20 29 -8 6 -15 22 -17 35 -2 14 -6 32 -9 40 -5 13 -30 177 -52 341 -3
25 -8 57 -10 70 -2 13 -11 78 -19 144 -8 66 -27 209 -41 318 -14 109 -24 215
-21 237 2 22 1 40 -4 40 -4 0 -7 11 -7 25 0 14 4 25 9 25 6 0 6 5 -1 14 -8 10
-8 16 3 25 12 10 15 7 20 -16 10 -46 100 -562 163 -930 l58 -342 25 6 c14 3
36 10 50 16 20 8 22 11 8 14 -10 3 -18 11 -18 19 0 8 -6 14 -13 14 -7 0 -13
10 -15 23 -1 13 -11 45 -23 72 -12 26 -23 62 -25 79 -2 17 -6 43 -9 59 -3 17
0 27 8 27 8 0 8 3 -2 9 -13 8 -27 66 -36 146 -3 22 -7 51 -10 65 -6 26 -13 81
-19 135 -1 17 -6 39 -10 50 -6 16 -6 17 3 5 9 -13 11 -13 11 1 0 8 -5 20 -10
25 -7 7 -7 20 -2 35 12 31 5 49 -16 42 -11 -3 -13 -2 -6 4 12 9 11 96 -1 126
-4 9 -4 25 0 35 9 21 24 -38 135 -528 45 -195 83 -360 85 -367 3 -8 26 -6 87
7 63 14 947 200 1120 236 24 5 27 2 34 -30 4 -25 12 -36 24 -36 15 0 17 6 13
39 l-5 39 94 21 c153 35 188 67 195 179 6 84 -22 168 -70 208 l-32 27 -132 -6
c-122 -6 -133 -5 -133 11 0 9 -3 27 -6 39 -4 15 -1 23 13 27 33 10 222 18 235
10 7 -5 24 -7 38 -6 29 3 105 -61 112 -94 2 -11 6 -15 10 -8 4 5 -4 29 -18 51
-18 30 -40 49 -80 69 l-55 27 -132 -11 c-135 -12 -215 -26 -727 -132 -162 -34
-319 -66 -347 -72 -69 -14 -70 -34 -3 -30 8 1 33 5 55 11 22 5 51 12 65 14 14
3 43 10 65 15 22 6 54 13 70 16 17 3 53 10 80 16 28 5 73 14 100 20 28 5 137
27 243 50 106 22 201 40 212 40 13 0 22 -11 29 -37 12 -42 8 -53 -21 -53 -11
0 -120 -20 -241 -45 -122 -25 -334 -69 -471 -97 -160 -33 -254 -48 -262 -42
-16 10 -304 453 -304 466 0 4 5 8 12 8 6 0 8 -3 5 -7 -4 -3 2 -13 13 -20 11
-8 18 -19 15 -24 -4 -5 1 -9 9 -9 10 0 13 -6 10 -15 -4 -10 0 -15 14 -15 11 0
22 -7 26 -15 3 -8 10 -15 15 -15 6 0 -57 90 -139 201 -83 110 -150 203 -150
205 0 2 11 -1 25 -8 13 -6 22 -14 20 -18 -5 -8 43 -36 49 -29 2 2 -47 64 -110
137 -63 74 -114 131 -114 127z m229 -515 c1 -13 0 -13 -9 0 -5 8 -9 24 -9 35
l0 20 9 -20 c5 -11 9 -27 9 -35z"/>
<path d="M9280 5590 c-25 -16 -98 -47 -162 -67 -65 -21 -118 -40 -118 -43 1
-13 79 -59 85 -50 3 5 1 10 -5 10 -20 0 0 19 56 55 30 20 59 33 64 30 4 -3 10
-2 12 2 1 5 21 20 43 35 36 25 40 26 46 11 5 -15 7 -15 18 5 21 39 8 43 -39
12z"/>
<path d="M5001 5583 c6 -6 17 -9 25 -6 23 9 16 23 -10 21 -19 -2 -22 -5 -15
-15z"/>
<path d="M1441 5534 c0 -11 3 -14 6 -6 3 7 2 16 -1 19 -3 4 -6 -2 -5 -13z"/>
<path d="M9310 5490 c-14 -11 -55 -32 -92 -46 -38 -15 -68 -30 -68 -33 0 -3 8
-11 18 -18 16 -9 29 -3 88 44 38 30 73 59 79 64 16 16 1 9 -25 -11z"/>
<path d="M5580 5419 c0 -5 5 -7 10 -4 6 3 10 8 10 11 0 2 -4 4 -10 4 -5 0 -10
-5 -10 -11z"/>
<path d="M5305 5240 c3 -5 8 -10 11 -10 2 0 4 5 4 10 0 6 -5 10 -11 10 -5 0
-7 -4 -4 -10z"/>
<path d="M6011 5174 c0 -11 3 -14 6 -6 3 7 2 16 -1 19 -3 4 -6 -2 -5 -13z"/>
<path d="M5372 5126 c15 -29 16 -30 16 -3 0 13 -6 24 -14 24 -10 0 -10 -5 -2
-21z"/>
<path d="M3580 5095 c-52 -7 -216 -38 -365 -68 -148 -31 -340 -70 -425 -87
-85 -18 -159 -36 -165 -41 -20 -19 36 -10 445 75 96 21 236 48 310 62 74 14
154 30 177 35 24 5 101 12 171 15 108 6 137 4 183 -11 59 -20 111 -57 140
-102 10 -15 19 -22 19 -15 0 24 -85 105 -135 128 -43 21 -64 24 -155 23 -58
-1 -148 -7 -200 -14z"/>
<path d="M5657 5087 c-3 -8 1 -14 9 -14 16 0 19 13 5 21 -5 3 -11 0 -14 -7z"/>
<path d="M5590 5080 c-9 -6 -10 -10 -3 -10 6 0 15 5 18 10 8 12 4 12 -15 0z"/>
<path d="M5400 5060 c0 -5 7 -7 15 -4 8 4 15 8 15 10 0 2 -7 4 -15 4 -8 0 -15
-4 -15 -10z"/>
<path d="M5427 5033 c-11 -11 -8 -25 4 -17 6 3 15 0 20 -7 5 -8 9 -9 9 -3 0
15 -25 36 -33 27z"/>
<path d="M5655 5020 c4 -6 11 -8 16 -5 14 9 11 15 -7 15 -8 0 -12 -5 -9 -10z"/>
<path d="M2411 4980 c29 -45 29 -45 29 -34 0 5 -12 23 -26 39 l-26 30 23 -35z"/>
<path d="M5636 4995 c4 -8 12 -15 20 -15 20 0 17 7 -6 20 -16 9 -18 8 -14 -5z"/>
<path d="M5440 4965 c0 -8 4 -15 8 -15 5 0 9 7 9 15 0 8 -4 15 -9 15 -4 0 -8
-7 -8 -15z"/>
<path d="M5670 4950 c0 -5 5 -10 11 -10 5 0 7 5 4 10 -3 6 -8 10 -11 10 -2 0
-4 -4 -4 -10z"/>
<path d="M8029 4936 c27 -29 33 -32 25 -13 -2 7 -14 19 -27 26 -21 13 -21 12
2 -13z"/>
<path d="M2460 4916 c0 -2 8 -10 18 -17 15 -13 16 -12 3 4 -13 16 -21 21 -21
13z"/>
<path d="M5463 4899 c4 -13 7 -27 7 -31 0 -5 4 -8 9 -8 11 0 1 49 -12 57 -6 4
-8 -2 -4 -18z"/>
<path d="M5680 4880 c0 -5 5 -10 10 -10 6 0 10 5 10 10 0 6 -4 10 -10 10 -5 0
-10 -4 -10 -10z"/>
<path d="M8099 4877 c12 -16 201 -191 665 -617 105 -97 251 -231 324 -298 73
-68 137 -120 142 -117 10 6 -34 55 -72 80 -15 9 -26 21 -23 25 3 5 -10 20 -27
35 -31 25 -115 99 -148 130 -35 33 -243 226 -340 315 -222 205 -285 260 -297
260 -7 0 -12 3 -10 8 3 10 -77 82 -92 82 -6 0 -10 5 -8 10 1 6 -27 32 -63 57
-36 26 -59 39 -51 30z"/>
<path d="M5506 4834 c-3 -9 -10 -12 -16 -9 -5 3 -10 1 -10 -4 0 -15 23 -14 38
1 10 10 15 10 22 -2 7 -12 9 -11 8 6 -2 24 -34 30 -42 8z"/>
<path d="M5585 4839 c-4 -6 -5 -12 -2 -15 2 -3 7 2 10 11 7 17 1 20 -8 4z"/>
<path d="M5981 4834 c0 -11 3 -14 6 -6 3 7 2 16 -1 19 -3 4 -6 -2 -5 -13z"/>
<path d="M5635 4810 c3 -5 11 -10 16 -10 6 0 7 5 4 10 -3 6 -11 10 -16 10 -6
0 -7 -4 -4 -10z"/>
<path d="M5514 4799 c-3 -6 -1 -16 5 -22 8 -8 11 -5 11 11 0 24 -5 28 -16 11z"/>
<path d="M5695 4799 c7 -11 35 -12 35 -1 0 4 -9 8 -20 9 -11 1 -18 -2 -15 -8z"/>
<path d="M5490 4783 c0 -13 5 -23 10 -23 13 0 13 11 0 30 -8 12 -10 11 -10 -7z"/>
<path d="M4041 4754 c0 -11 3 -14 6 -6 3 7 2 16 -1 19 -3 4 -6 -2 -5 -13z"/>
<path d="M6111 4754 c0 -11 3 -14 6 -6 3 7 2 16 -1 19 -3 4 -6 -2 -5 -13z"/>
<path d="M6001 4744 c0 -11 3 -14 6 -6 3 7 2 16 -1 19 -3 4 -6 -2 -5 -13z"/>
<path d="M5501 4716 c-1 -22 2 -27 15 -22 13 5 14 3 6 -7 -7 -8 -11 -62 -10
-142 1 -218 -43 -422 -132 -612 -21 -45 -41 -97 -45 -115 -9 -44 -43 -137 -61
-168 -11 -18 -7 -16 14 8 39 44 123 208 157 307 15 44 30 87 33 95 3 8 6 26 7
40 1 14 4 27 5 30 2 3 4 10 4 15 1 6 7 20 14 32 7 12 9 29 6 37 -4 9 -1 23 5
30 9 11 9 15 -1 19 -7 3 -3 6 10 6 12 1 22 6 22 11 0 6 -3 9 -7 9 -20 -3 -24
2 -13 16 7 8 21 15 32 15 10 0 16 5 13 10 -4 6 -11 8 -16 5 -18 -12 -35 20
-32 58 3 34 22 68 38 67 21 -1 25 1 19 12 -5 8 -2 9 11 4 15 -5 16 -4 5 8 -6
9 -15 15 -18 14 -28 -3 -43 4 -38 17 3 8 0 15 -7 15 -7 0 -4 7 6 15 18 13 18
14 -2 34 -21 21 -28 37 -12 27 5 -3 11 4 14 15 4 15 2 19 -9 15 -10 -4 -14 2
-14 19 0 14 5 25 11 25 5 0 7 -4 4 -10 -3 -5 -1 -10 5 -10 7 0 9 7 6 16 -3 9
-6 20 -6 25 0 5 -6 9 -14 9 -8 0 -17 8 -19 18 -3 10 -5 5 -6 -12z m69 -240 c0
-17 -32 -15 -38 2 -2 7 6 12 17 12 12 0 21 -6 21 -14z"/>
<path d="M6121 4714 c0 -11 3 -14 6 -6 3 7 2 16 -1 19 -3 4 -6 -2 -5 -13z"/>
<path d="M5551 4705 c-1 -21 14 -34 29 -25 13 8 13 10 -2 10 -9 0 -19 6 -21
13 -3 6 -6 8 -6 2z"/>
<path d="M5742 4689 c-9 -14 -8 -16 8 -12 22 6 34 30 15 30 -7 0 -17 -8 -23
-18z"/>
<path d="M6131 4674 c0 -11 3 -14 6 -6 3 7 2 16 -1 19 -3 4 -6 -2 -5 -13z"/>
<path d="M5746 4661 c-3 -5 1 -11 9 -14 9 -4 12 -1 8 9 -6 16 -10 17 -17 5z"/>
<path d="M7560 4610 c-14 -10 -22 -21 -19 -25 4 -3 13 1 22 9 18 18 32 9 15
-11 -8 -11 -7 -12 6 -7 9 3 16 10 16 16 0 5 6 6 13 2 6 -4 3 2 -7 14 -11 12
-20 22 -20 22 -1 0 -12 -9 -26 -20z"/>
<path d="M5550 4610 c0 -5 5 -10 11 -10 5 0 7 5 4 10 -3 6 -8 10 -11 10 -2 0
-4 -4 -4 -10z"/>
<path d="M5766 4612 c-3 -5 1 -9 9 -9 8 0 12 4 9 9 -3 4 -7 8 -9 8 -2 0 -6 -4
-9 -8z"/>
<path d="M5575 4580 c-3 -5 -1 -10 4 -10 6 0 11 5 11 10 0 6 -2 10 -4 10 -3 0
-8 -4 -11 -10z"/>
<path d="M5767 4577 c-3 -8 1 -14 8 -14 7 0 11 6 8 14 -3 7 -6 13 -8 13 -2 0
-5 -6 -8 -13z"/>
<path d="M5800 4580 c0 -5 5 -10 11 -10 5 0 7 5 4 10 -3 6 -8 10 -11 10 -2 0
-4 -4 -4 -10z"/>
<path d="M6161 4544 c0 -11 3 -14 6 -6 3 7 2 16 -1 19 -3 4 -6 -2 -5 -13z"/>
<path d="M7597 4530 c3 -11 9 -17 15 -14 5 3 4 12 -3 20 -16 19 -18 18 -12 -6z"/>
<path d="M5582 4524 c10 -10 20 -16 22 -13 3 3 -5 11 -17 18 -21 13 -21 12 -5
-5z"/>
<path d="M6171 4504 c0 -11 3 -14 6 -6 3 7 2 16 -1 19 -3 4 -6 -2 -5 -13z"/>
<path d="M6181 4464 c0 -11 3 -14 6 -6 3 7 2 16 -1 19 -3 4 -6 -2 -5 -13z"/>
<path d="M6071 4454 c0 -11 3 -14 6 -6 3 7 2 16 -1 19 -3 4 -6 -2 -5 -13z"/>
<path d="M5543 4394 c0 -35 3 -41 19 -36 21 5 23 18 4 29 -8 4 -16 17 -19 28
-2 11 -5 1 -4 -21z"/>
<path d="M5571 4414 c0 -11 3 -14 6 -6 3 7 2 16 -1 19 -3 4 -6 -2 -5 -13z"/>
<path d="M6191 4414 c0 -11 3 -14 6 -6 3 7 2 16 -1 19 -3 4 -6 -2 -5 -13z"/>
<path d="M6201 4374 c0 -11 3 -14 6 -6 3 7 2 16 -1 19 -3 4 -6 -2 -5 -13z"/>
<path d="M6211 4334 c0 -11 3 -14 6 -6 3 7 2 16 -1 19 -3 4 -6 -2 -5 -13z"/>
<path d="M6101 4324 c0 -11 3 -14 6 -6 3 7 2 16 -1 19 -3 4 -6 -2 -5 -13z"/>
<path d="M6231 4254 c0 -11 3 -14 6 -6 3 7 2 16 -1 19 -3 4 -6 -2 -5 -13z"/>
<path d="M6121 4244 c0 -11 3 -14 6 -6 3 7 2 16 -1 19 -3 4 -6 -2 -5 -13z"/>
<path d="M5526 4227 c3 -10 9 -15 12 -12 3 3 0 11 -7 18 -10 9 -11 8 -5 -6z"/>
<path d="M6241 4214 c0 -11 3 -14 6 -6 3 7 2 16 -1 19 -3 4 -6 -2 -5 -13z"/>
<path d="M6131 4194 c0 -11 3 -14 6 -6 3 7 2 16 -1 19 -3 4 -6 -2 -5 -13z"/>
<path d="M6252 4170 c0 -14 2 -19 5 -12 2 6 2 18 0 25 -3 6 -5 1 -5 -13z"/>
<path d="M6141 4154 c0 -11 3 -14 6 -6 3 7 2 16 -1 19 -3 4 -6 -2 -5 -13z"/>
<path d="M6261 4124 c0 -11 3 -14 6 -6 3 7 2 16 -1 19 -3 4 -6 -2 -5 -13z"/>
<path d="M6271 4095 c-2 -16 63 -279 66 -269 2 5 -12 70 -31 144 -19 74 -34
131 -35 125z"/>
<path d="M6161 4074 c0 -11 3 -14 6 -6 3 7 2 16 -1 19 -3 4 -6 -2 -5 -13z"/>
<path d="M6171 4034 c0 -11 3 -14 6 -6 3 7 2 16 -1 19 -3 4 -6 -2 -5 -13z"/>
<path d="M6191 3944 c0 -11 3 -14 6 -6 3 7 2 16 -1 19 -3 4 -6 -2 -5 -13z"/>
<path d="M6202 3900 c0 -14 2 -19 5 -12 2 6 2 18 0 25 -3 6 -5 1 -5 -13z"/>
<path d="M9860 3869 c0 -5 5 -7 10 -4 6 3 10 8 10 11 0 2 -4 4 -10 4 -5 0 -10
-5 -10 -11z"/>
<path d="M6221 3814 c0 -11 3 -14 6 -6 3 7 2 16 -1 19 -3 4 -6 -2 -5 -13z"/>
<path d="M6341 3803 c-1 -11 23 -115 91 -398 17 -71 35 -137 40 -145 7 -12 8
-10 4 5 -3 11 -32 135 -66 275 -62 261 -68 284 -69 263z"/>
<path d="M6231 3774 c0 -11 3 -14 6 -6 3 7 2 16 -1 19 -3 4 -6 -2 -5 -13z"/>
<path d="M6241 3740 c0 -8 8 -46 18 -85 11 -38 19 -63 20 -55 0 8 -8 47 -18
85 -11 39 -19 63 -20 55z"/>
<path d="M4870 3640 c-19 -17 -26 -27 -15 -21 19 9 63 51 54 51 -3 0 -20 -14
-39 -30z"/>
<path d="M4767 3573 c-32 -20 -56 -38 -53 -40 4 -5 116 65 116 72 0 7 3 8 -63
-32z"/>
<path d="M5209 3563 l-24 -28 28 24 c25 23 32 31 24 31 -2 0 -14 -12 -28 -27z"/>
<path d="M6284 3560 c7 -59 81 -363 83 -345 2 11 -17 99 -42 195 -24 96 -43
164 -41 150z"/>
<path d="M4915 3535 c-16 -14 -62 -44 -102 -67 -39 -24 -70 -44 -68 -46 6 -6
137 74 175 107 42 36 38 41 -5 6z"/>
<path d="M4630 3500 c-30 -16 -51 -29 -47 -30 12 0 117 49 117 55 0 9 -15 4
-70 -25z"/>
<path d="M5170 3515 c-7 -9 -18 -14 -24 -12 -11 4 -23 -4 -67 -45 -16 -14 -29
-24 -29 -22 0 3 -10 -4 -22 -16 -12 -11 -27 -20 -34 -20 -6 0 -14 -7 -18 -15
-3 -8 -26 -24 -51 -36 -25 -12 -45 -25 -45 -30 0 -5 -6 -9 -14 -9 -8 0 -16 -3
-18 -7 -4 -10 -110 -63 -125 -63 -6 0 -13 -4 -15 -8 -4 -12 -163 -62 -217 -68
-25 -3 -50 -9 -56 -13 -5 -4 -19 -8 -30 -9 -48 -4 -61 -8 -75 -21 -9 -9 -15
-10 -18 -3 -2 8 -9 8 -20 2 -25 -14 -134 -40 -144 -34 -4 3 -17 0 -28 -6 -24
-13 -154 -39 -227 -47 -29 -3 -53 -8 -53 -13 0 -4 -10 -8 -22 -8 -57 -1 -78
-5 -78 -14 0 -6 -9 -8 -20 -5 -11 3 -20 1 -20 -3 0 -5 -8 -9 -17 -8 -33 0
-118 -14 -123 -21 -3 -3 -18 -6 -33 -6 -16 1 -31 -3 -34 -7 -2 -5 -13 -6 -24
-3 -10 4 -19 2 -19 -2 0 -5 -10 -9 -22 -10 -13 -1 -34 -4 -48 -7 -14 -4 -39
-8 -56 -10 -16 -2 -39 -6 -50 -10 -17 -5 -35 -8 -120 -20 -11 -2 -27 -7 -34
-11 -7 -4 -31 -10 -54 -12 -23 -2 -48 -6 -56 -9 -8 -4 -22 -8 -30 -9 -51 -9
-89 -16 -114 -21 -19 -5 -31 -2 -37 7 -7 11 -9 10 -9 -3 0 -17 -10 -22 -37
-19 -7 1 -22 -3 -32 -9 -16 -8 -22 -6 -30 7 -10 17 -10 17 -11 0 0 -10 -4 -15
-10 -12 -5 3 -10 2 -10 -3 0 -9 -39 -17 -127 -28 -12 -1 -27 -5 -32 -9 -6 -3
-11 -2 -11 3 0 5 -10 8 -23 6 -12 -1 -28 -3 -35 -3 -7 -1 -11 -5 -8 -9 3 -5
-15 -13 -39 -19 -24 -6 -42 -6 -39 -2 3 5 -2 9 -11 9 -11 0 -15 -5 -11 -16 4
-10 2 -13 -7 -7 -22 14 -41 12 -60 -5 -13 -12 -20 -13 -25 -4 -4 6 -18 9 -30
5 -12 -3 -19 -10 -15 -16 4 -6 -3 -8 -20 -3 -14 3 -28 2 -31 -3 -3 -5 -14 -7
-24 -5 -9 3 -66 -6 -127 -20 -60 -13 -103 -25 -95 -26 8 -1 4 -5 -10 -9 -14
-4 -27 -4 -30 -1 -4 5 -339 -61 -378 -75 -7 -2 -15 -4 -18 -4 -4 0 -10 -3 -13
-8 -3 -5 -28 -23 -56 -40 -71 -46 -43 -49 116 -14 219 49 2065 448 2319 502
346 73 766 175 843 204 136 51 245 113 357 201 64 51 150 134 138 134 -3 0
-11 -7 -18 -15z"/>
<path d="M4426 3432 c-55 -14 -95 -27 -89 -29 13 -5 171 35 193 48 21 12 9 10
-104 -19z"/>
<path d="M4633 3382 c-45 -20 -81 -38 -79 -40 5 -5 159 57 171 69 15 15 -5 9
-92 -29z"/>
<path d="M4220 3380 c-20 -6 -21 -8 -5 -8 11 0 31 4 45 8 20 6 21 8 5 8 -11 0
-31 -4 -45 -8z"/>
<path d="M4030 3335 c-74 -18 -127 -34 -117 -34 19 -1 269 58 276 65 9 9 -28
2 -159 -31z"/>
<path d="M4500 3330 c-21 -7 -21 -8 -5 -9 11 0 27 4 35 9 18 11 5 11 -30 0z"/>
<path d="M4405 3310 c-16 -4 -43 -11 -59 -14 -15 -4 -26 -9 -24 -12 5 -5 140
24 147 32 7 6 -31 3 -64 -6z"/>
<path d="M3868 3293 c7 -3 16 -2 19 1 4 3 -2 6 -13 5 -11 0 -14 -3 -6 -6z"/>
<path d="M3818 3283 c6 -2 18 -2 25 0 6 3 1 5 -13 5 -14 0 -19 -2 -12 -5z"/>
<path d="M3715 3265 c-27 -7 -41 -13 -30 -13 11 0 43 6 70 13 28 7 41 13 30
13 -11 0 -42 -6 -70 -13z"/>
<path d="M4180 3255 c-47 -13 -80 -24 -73 -24 16 -1 193 40 193 45 0 8 -37 2
-120 -21z"/>
<path d="M7598 3253 c7 -3 16 -2 19 1 4 3 -2 6 -13 5 -11 0 -14 -3 -6 -6z"/>
<path d="M3595 3240 c-27 -7 -27 -8 -5 -8 14 0 36 4 50 8 20 6 21 8 5 8 -11 0
-33 -4 -50 -8z"/>
<path d="M7558 3243 c7 -3 16 -2 19 1 4 3 -2 6 -13 5 -11 0 -14 -3 -6 -6z"/>
<path d="M7470 3230 c-20 -6 -21 -8 -5 -8 11 0 31 4 45 8 20 6 21 8 5 8 -11 0
-31 -4 -45 -8z"/>
<path d="M3528 3223 c7 -3 16 -2 19 1 4 3 -2 6 -13 5 -11 0 -14 -3 -6 -6z"/>
<path d="M4015 3215 l-40 -14 40 6 c22 3 49 9 60 14 l20 8 -20 0 c-11 0 -38
-7 -60 -14z"/>
<path d="M3390 3199 c-47 -11 -89 -22 -95 -24 -19 -9 75 7 147 25 98 24 55 23
-52 -1z"/>
<path d="M7418 3213 c7 -3 16 -2 19 1 4 3 -2 6 -13 5 -11 0 -14 -3 -6 -6z"/>
<path d="M7368 3203 c7 -3 16 -2 19 1 4 3 -2 6 -13 5 -11 0 -14 -3 -6 -6z"/>
<path d="M3938 3193 c6 -2 18 -2 25 0 6 3 1 5 -13 5 -14 0 -19 -2 -12 -5z"/>
<path d="M3836 3179 c-56 -13 -56 -19 0 -16 27 1 55 8 62 15 16 15 -2 15 -62
1z"/>
<path d="M7245 3180 c-16 -7 -17 -9 -3 -9 9 -1 20 4 23 9 7 11 7 11 -20 0z"/>
<path d="M6376 3155 c8 -37 14 -45 14 -19 0 10 -5 26 -10 34 -8 11 -9 7 -4
-15z"/>
<path d="M3170 3152 c-36 -8 -60 -17 -54 -19 5 -2 46 5 90 16 43 10 68 19 54
19 -14 0 -54 -7 -90 -16z"/>
<path d="M3748 3153 c7 -3 16 -2 19 1 4 3 -2 6 -13 5 -11 0 -14 -3 -6 -6z"/>
<path d="M3680 3141 c0 -4 11 -6 25 -3 14 2 25 6 25 8 0 2 -11 4 -25 4 -14 0
-25 -4 -25 -9z"/>
<path d="M6233 3115 l-31 -25 15 -62 c19 -76 25 -84 48 -62 13 13 16 28 12 56
-3 21 -1 36 4 33 5 -4 6 9 2 27 -10 56 -15 60 -50 33z"/>
<path d="M2835 3080 c-121 -26 -289 -63 -373 -80 -84 -18 -150 -35 -148 -37 5
-5 768 156 775 163 10 10 -48 -1 -254 -46z"/>
<path d="M3608 3123 c7 -3 16 -2 19 1 4 3 -2 6 -13 5 -11 0 -14 -3 -6 -6z"/>
<path d="M7008 3123 c7 -3 16 -2 19 1 4 3 -2 6 -13 5 -11 0 -14 -3 -6 -6z"/>
<path d="M3558 3113 c6 -2 18 -2 25 0 6 3 1 5 -13 5 -14 0 -19 -2 -12 -5z"/>
<path d="M6958 3113 c7 -3 16 -2 19 1 4 3 -2 6 -13 5 -11 0 -14 -3 -6 -6z"/>
<path d="M3475 3100 l-20 -9 20 1 c11 0 31 4 45 8 l25 8 -25 0 c-14 0 -34 -3
-45 -8z"/>
<path d="M6918 3103 c7 -3 16 -2 19 1 4 3 -2 6 -13 5 -11 0 -14 -3 -6 -6z"/>
<path d="M3418 3083 c6 -2 18 -2 25 0 6 3 1 5 -13 5 -14 0 -19 -2 -12 -5z"/>
<path d="M3340 3070 c-20 -6 -21 -8 -5 -8 11 0 31 4 45 8 20 6 21 8 5 8 -11 0
-31 -4 -45 -8z"/>
<path d="M6778 3073 c7 -3 16 -2 19 1 4 3 -2 6 -13 5 -11 0 -14 -3 -6 -6z"/>
<path d="M3240 3050 c-20 -6 -21 -8 -5 -8 11 0 31 4 45 8 20 6 21 8 5 8 -11 0
-31 -4 -45 -8z"/>
<path d="M6688 3053 c7 -3 16 -2 19 1 4 3 -2 6 -13 5 -11 0 -14 -3 -6 -6z"/>
<path d="M6638 3043 c7 -3 16 -2 19 1 4 3 -2 6 -13 5 -11 0 -14 -3 -6 -6z"/>
<path d="M3150 3030 l-25 -8 25 0 c14 0 34 3 45 8 l20 9 -20 -1 c-11 0 -31 -4
-45 -8z"/>
<path d="M6598 3033 c7 -3 16 -2 19 1 4 3 -2 6 -13 5 -11 0 -14 -3 -6 -6z"/>
<path d="M6548 3023 c7 -3 16 -2 19 1 4 3 -2 6 -13 5 -11 0 -14 -3 -6 -6z"/>
<path d="M3012 3003 c-40 -9 -71 -18 -68 -20 4 -5 168 26 175 33 8 7 -33 2
-107 -13z"/>
<path d="M6508 3013 c7 -3 16 -2 19 1 4 3 -2 6 -13 5 -11 0 -14 -3 -6 -6z"/>
<path d="M6458 3003 c7 -3 16 -2 19 1 4 3 -2 6 -13 5 -11 0 -14 -3 -6 -6z"/>
<path d="M6368 2983 c7 -3 16 -2 19 1 4 3 -2 6 -13 5 -11 0 -14 -3 -6 -6z"/>
<path d="M2845 2965 c-27 -7 -41 -13 -30 -13 11 0 43 6 70 13 28 7 41 13 30
13 -11 0 -42 -6 -70 -13z"/>
<path d="M2121 2927 c-80 -17 -140 -32 -133 -35 11 -3 303 57 311 64 10 9 -42
0 -178 -29z"/>
<path d="M2705 2934 l-50 -14 49 6 c54 6 108 23 71 22 -11 0 -42 -6 -70 -14z"/>
<path d="M2565 2905 c-27 -7 -41 -13 -30 -13 11 0 43 6 70 13 28 7 41 13 30
13 -11 0 -42 -6 -70 -13z"/>
<path d="M1910 2880 c-20 -6 -21 -8 -5 -8 11 0 31 4 45 8 20 6 21 8 5 8 -11 0
-31 -4 -45 -8z"/>
<path d="M2405 2870 c-38 -10 -61 -18 -50 -18 11 0 52 8 90 18 39 10 61 18 50
18 -11 0 -51 -8 -90 -18z"/>
<path d="M1825 2863 c-11 -3 -24 -9 -29 -14 -8 -7 45 3 79 16 15 5 -27 4 -50
-2z"/>
<path d="M1720 2840 c-20 -6 -21 -8 -5 -8 11 0 31 4 45 8 20 6 21 8 5 8 -11 0
-31 -4 -45 -8z"/>
<path d="M2151 2817 c-79 -17 -139 -33 -133 -35 12 -4 293 55 301 63 8 9 -21
4 -168 -28z"/>
<path d="M1605 2815 c-27 -7 -41 -13 -30 -13 11 0 43 6 70 13 28 7 41 13 30
13 -11 0 -42 -6 -70 -13z"/>
<path d="M1415 2774 c-55 -13 -80 -21 -55 -18 55 6 203 42 175 42 -11 0 -65
-11 -120 -24z"/>
<path d="M1968 2773 c6 -2 18 -2 25 0 6 3 1 5 -13 5 -14 0 -19 -2 -12 -5z"/>
<path d="M1870 2757 c-25 -6 -38 -12 -30 -14 8 -1 38 3 65 11 58 17 31 19 -35
3z"/>
<path d="M1235 2735 l-50 -14 45 6 c25 3 54 9 65 14 31 12 -4 9 -60 -6z"/>
<path d="M1750 2730 l-25 -8 25 0 c14 0 34 3 45 8 l20 9 -20 -1 c-11 0 -31 -4
-45 -8z"/>
<path d="M1635 2705 c-27 -7 -41 -13 -30 -13 11 0 43 6 70 13 28 7 41 13 30
13 -11 0 -42 -6 -70 -13z"/>
<path d="M1460 2669 c-98 -22 -123 -31 -65 -23 56 8 194 42 170 42 -11 0 -58
-9 -105 -19z"/>
<path d="M1265 2625 l-50 -14 45 6 c25 3 54 9 65 14 31 12 -4 9 -60 -6z"/>
<path d="M1150 2600 c-20 -6 -21 -8 -5 -8 11 0 31 4 45 8 20 6 21 8 5 8 -11 0
-31 -4 -45 -8z"/>
</g>
</svg>
